<mxfile host="app.diagrams.net" modified="2022-03-20T08:26:36.313Z" agent="5.0 (Windows NT 10.0; Win64; x64) AppleWebKit/537.36 (KHTML, like Gecko) Chrome/97.0.4692.71 Safari/537.36" etag="QtR-DJM5LTRUr02nrR0o" version="17.1.3" type="github">
  <diagram id="xO06TEnE0nSzQ4TKILbg" name="Page-1">
    <mxGraphModel dx="942" dy="558" grid="1" gridSize="10" guides="1" tooltips="1" connect="1" arrows="1" fold="1" page="1" pageScale="1" pageWidth="827" pageHeight="1169" math="0" shadow="0">
      <root>
        <mxCell id="0" />
        <mxCell id="1" parent="0" />
        <mxCell id="Y0bdDdcckE70ORQPM595-11" style="rounded=0;orthogonalLoop=1;jettySize=auto;html=1;fontSize=20;entryX=0.5;entryY=0;entryDx=0;entryDy=0;" edge="1" parent="1" source="Y0bdDdcckE70ORQPM595-14" target="Y0bdDdcckE70ORQPM595-16">
          <mxGeometry relative="1" as="geometry">
            <mxPoint x="220" y="580" as="targetPoint" />
          </mxGeometry>
        </mxCell>
        <mxCell id="Y0bdDdcckE70ORQPM595-12" style="edgeStyle=none;rounded=0;orthogonalLoop=1;jettySize=auto;html=1;entryX=0.5;entryY=0;entryDx=0;entryDy=0;fontSize=20;" edge="1" parent="1" source="Y0bdDdcckE70ORQPM595-14" target="Y0bdDdcckE70ORQPM595-17">
          <mxGeometry relative="1" as="geometry" />
        </mxCell>
        <mxCell id="Y0bdDdcckE70ORQPM595-13" style="edgeStyle=none;rounded=0;orthogonalLoop=1;jettySize=auto;html=1;exitX=0.642;exitY=0.986;exitDx=0;exitDy=0;entryX=0.5;entryY=0;entryDx=0;entryDy=0;fontSize=20;exitPerimeter=0;" edge="1" parent="1" source="Y0bdDdcckE70ORQPM595-14" target="Y0bdDdcckE70ORQPM595-19">
          <mxGeometry relative="1" as="geometry" />
        </mxCell>
        <mxCell id="Y0bdDdcckE70ORQPM595-14" value="&lt;font style=&quot;font-size: 20px&quot;&gt;X3&lt;/font&gt;" style="ellipse;whiteSpace=wrap;html=1;" vertex="1" parent="1">
          <mxGeometry x="330" y="410" width="120" height="70" as="geometry" />
        </mxCell>
        <mxCell id="Y0bdDdcckE70ORQPM595-15" value="X3=1" style="text;html=1;strokeColor=none;fillColor=none;align=center;verticalAlign=middle;whiteSpace=wrap;rounded=0;fontSize=20;" vertex="1" parent="1">
          <mxGeometry x="180" y="440" width="60" height="30" as="geometry" />
        </mxCell>
        <mxCell id="Y0bdDdcckE70ORQPM595-16" value="Y=T" style="rounded=0;whiteSpace=wrap;html=1;fontSize=20;" vertex="1" parent="1">
          <mxGeometry x="50" y="500" width="120" height="60" as="geometry" />
        </mxCell>
        <mxCell id="Y0bdDdcckE70ORQPM595-17" value="Y=T" style="rounded=0;whiteSpace=wrap;html=1;fontSize=20;" vertex="1" parent="1">
          <mxGeometry x="130" y="580" width="120" height="60" as="geometry" />
        </mxCell>
        <mxCell id="Y0bdDdcckE70ORQPM595-18" value="X3=2" style="text;html=1;strokeColor=none;fillColor=none;align=center;verticalAlign=middle;whiteSpace=wrap;rounded=0;fontSize=20;" vertex="1" parent="1">
          <mxGeometry x="240" y="480" width="60" height="30" as="geometry" />
        </mxCell>
        <mxCell id="Y0bdDdcckE70ORQPM595-19" value="Y=F" style="rounded=0;whiteSpace=wrap;html=1;fontSize=20;" vertex="1" parent="1">
          <mxGeometry x="414" y="740" width="120" height="60" as="geometry" />
        </mxCell>
        <mxCell id="Y0bdDdcckE70ORQPM595-20" value="X3=5" style="text;html=1;strokeColor=none;fillColor=none;align=center;verticalAlign=middle;whiteSpace=wrap;rounded=0;fontSize=20;" vertex="1" parent="1">
          <mxGeometry x="384" y="610" width="60" height="30" as="geometry" />
        </mxCell>
        <mxCell id="Y0bdDdcckE70ORQPM595-21" style="rounded=0;orthogonalLoop=1;jettySize=auto;html=1;fontSize=20;entryX=0.5;entryY=0;entryDx=0;entryDy=0;exitX=0.413;exitY=0.986;exitDx=0;exitDy=0;exitPerimeter=0;" edge="1" parent="1" target="Y0bdDdcckE70ORQPM595-24">
          <mxGeometry relative="1" as="geometry">
            <mxPoint x="340" y="780.98" as="targetPoint" />
            <mxPoint x="369.55999999999995" y="480" as="sourcePoint" />
          </mxGeometry>
        </mxCell>
        <mxCell id="Y0bdDdcckE70ORQPM595-22" style="edgeStyle=none;rounded=0;orthogonalLoop=1;jettySize=auto;html=1;entryX=0.5;entryY=0;entryDx=0;entryDy=0;fontSize=20;exitX=0.5;exitY=1;exitDx=0;exitDy=0;" edge="1" parent="1" target="Y0bdDdcckE70ORQPM595-25" source="Y0bdDdcckE70ORQPM595-14">
          <mxGeometry relative="1" as="geometry">
            <mxPoint x="461.92784489150154" y="673.0312681034068" as="sourcePoint" />
          </mxGeometry>
        </mxCell>
        <mxCell id="Y0bdDdcckE70ORQPM595-23" value="X3=3" style="text;html=1;strokeColor=none;fillColor=none;align=center;verticalAlign=middle;whiteSpace=wrap;rounded=0;fontSize=20;" vertex="1" parent="1">
          <mxGeometry x="260" y="540" width="60" height="30" as="geometry" />
        </mxCell>
        <mxCell id="Y0bdDdcckE70ORQPM595-24" value="Y=T" style="rounded=0;whiteSpace=wrap;html=1;fontSize=20;" vertex="1" parent="1">
          <mxGeometry x="190" y="665.98" width="120" height="60" as="geometry" />
        </mxCell>
        <mxCell id="Y0bdDdcckE70ORQPM595-25" value="Y=T" style="rounded=0;whiteSpace=wrap;html=1;fontSize=20;" vertex="1" parent="1">
          <mxGeometry x="270" y="740" width="120" height="60" as="geometry" />
        </mxCell>
        <mxCell id="Y0bdDdcckE70ORQPM595-26" value="X3=4" style="text;html=1;strokeColor=none;fillColor=none;align=center;verticalAlign=middle;whiteSpace=wrap;rounded=0;fontSize=20;" vertex="1" parent="1">
          <mxGeometry x="300" y="605" width="60" height="30" as="geometry" />
        </mxCell>
        <mxCell id="Y0bdDdcckE70ORQPM595-28" style="edgeStyle=none;rounded=0;orthogonalLoop=1;jettySize=auto;html=1;entryX=0.5;entryY=0;entryDx=0;entryDy=0;fontSize=20;" edge="1" parent="1" target="Y0bdDdcckE70ORQPM595-31">
          <mxGeometry relative="1" as="geometry">
            <mxPoint x="450" y="450" as="sourcePoint" />
          </mxGeometry>
        </mxCell>
        <mxCell id="Y0bdDdcckE70ORQPM595-31" value="Y=T" style="rounded=0;whiteSpace=wrap;html=1;fontSize=20;" vertex="1" parent="1">
          <mxGeometry x="647" y="500" width="120" height="60" as="geometry" />
        </mxCell>
        <mxCell id="Y0bdDdcckE70ORQPM595-33" style="rounded=0;orthogonalLoop=1;jettySize=auto;html=1;fontSize=20;entryX=0.5;entryY=0;entryDx=0;entryDy=0;exitX=0.917;exitY=0.786;exitDx=0;exitDy=0;exitPerimeter=0;" edge="1" parent="1" target="Y0bdDdcckE70ORQPM595-36" source="Y0bdDdcckE70ORQPM595-14">
          <mxGeometry relative="1" as="geometry">
            <mxPoint x="777" y="605.98" as="targetPoint" />
            <mxPoint x="806.56" y="305" as="sourcePoint" />
          </mxGeometry>
        </mxCell>
        <mxCell id="Y0bdDdcckE70ORQPM595-34" style="edgeStyle=none;rounded=0;orthogonalLoop=1;jettySize=auto;html=1;entryX=0.5;entryY=0;entryDx=0;entryDy=0;fontSize=20;exitX=1;exitY=1;exitDx=0;exitDy=0;" edge="1" parent="1" target="Y0bdDdcckE70ORQPM595-37" source="Y0bdDdcckE70ORQPM595-14">
          <mxGeometry relative="1" as="geometry">
            <mxPoint x="817" y="305" as="sourcePoint" />
          </mxGeometry>
        </mxCell>
        <mxCell id="Y0bdDdcckE70ORQPM595-36" value="Y=F" style="rounded=0;whiteSpace=wrap;html=1;fontSize=20;" vertex="1" parent="1">
          <mxGeometry x="617" y="580" width="120" height="60" as="geometry" />
        </mxCell>
        <mxCell id="Y0bdDdcckE70ORQPM595-37" value="Y=F" style="rounded=0;whiteSpace=wrap;html=1;fontSize=20;" vertex="1" parent="1">
          <mxGeometry x="540" y="665.98" width="120" height="60" as="geometry" />
        </mxCell>
        <mxCell id="Y0bdDdcckE70ORQPM595-38" value="X3=8" style="text;html=1;strokeColor=none;fillColor=none;align=center;verticalAlign=middle;whiteSpace=wrap;rounded=0;fontSize=20;" vertex="1" parent="1">
          <mxGeometry x="570" y="450" width="60" height="30" as="geometry" />
        </mxCell>
        <mxCell id="Y0bdDdcckE70ORQPM595-39" value="X3=6" style="text;html=1;strokeColor=none;fillColor=none;align=center;verticalAlign=middle;whiteSpace=wrap;rounded=0;fontSize=20;" vertex="1" parent="1">
          <mxGeometry x="460" y="575" width="60" height="30" as="geometry" />
        </mxCell>
        <mxCell id="Y0bdDdcckE70ORQPM595-40" value="X3=7" style="text;html=1;strokeColor=none;fillColor=none;align=center;verticalAlign=middle;whiteSpace=wrap;rounded=0;fontSize=20;" vertex="1" parent="1">
          <mxGeometry x="520" y="530" width="60" height="30" as="geometry" />
        </mxCell>
        <mxCell id="Y0bdDdcckE70ORQPM595-41" style="rounded=0;orthogonalLoop=1;jettySize=auto;html=1;fontSize=20;entryX=0.5;entryY=0;entryDx=0;entryDy=0;" edge="1" parent="1" source="Y0bdDdcckE70ORQPM595-44" target="Y0bdDdcckE70ORQPM595-46">
          <mxGeometry relative="1" as="geometry">
            <mxPoint x="210" y="240" as="targetPoint" />
          </mxGeometry>
        </mxCell>
        <mxCell id="Y0bdDdcckE70ORQPM595-42" style="edgeStyle=none;rounded=0;orthogonalLoop=1;jettySize=auto;html=1;entryX=0.5;entryY=0;entryDx=0;entryDy=0;fontSize=20;" edge="1" parent="1" source="Y0bdDdcckE70ORQPM595-44" target="Y0bdDdcckE70ORQPM595-47">
          <mxGeometry relative="1" as="geometry" />
        </mxCell>
        <mxCell id="Y0bdDdcckE70ORQPM595-43" style="edgeStyle=none;rounded=0;orthogonalLoop=1;jettySize=auto;html=1;exitX=1;exitY=1;exitDx=0;exitDy=0;entryX=0.5;entryY=0;entryDx=0;entryDy=0;fontSize=20;" edge="1" parent="1" source="Y0bdDdcckE70ORQPM595-44" target="Y0bdDdcckE70ORQPM595-49">
          <mxGeometry relative="1" as="geometry" />
        </mxCell>
        <mxCell id="Y0bdDdcckE70ORQPM595-44" value="&lt;font style=&quot;font-size: 20px&quot;&gt;X2&lt;/font&gt;" style="ellipse;whiteSpace=wrap;html=1;" vertex="1" parent="1">
          <mxGeometry x="310" y="70" width="120" height="70" as="geometry" />
        </mxCell>
        <mxCell id="Y0bdDdcckE70ORQPM595-45" value="X2=0" style="text;html=1;strokeColor=none;fillColor=none;align=center;verticalAlign=middle;whiteSpace=wrap;rounded=0;fontSize=20;" vertex="1" parent="1">
          <mxGeometry x="200" y="170" width="60" height="30" as="geometry" />
        </mxCell>
        <mxCell id="Y0bdDdcckE70ORQPM595-46" value="Y=T" style="rounded=0;whiteSpace=wrap;html=1;fontSize=20;" vertex="1" parent="1">
          <mxGeometry x="130" y="250" width="120" height="60" as="geometry" />
        </mxCell>
        <mxCell id="Y0bdDdcckE70ORQPM595-47" value="Y=T" style="rounded=0;whiteSpace=wrap;html=1;fontSize=20;" vertex="1" parent="1">
          <mxGeometry x="310" y="250" width="120" height="60" as="geometry" />
        </mxCell>
        <mxCell id="Y0bdDdcckE70ORQPM595-48" value="X2=1" style="text;html=1;strokeColor=none;fillColor=none;align=center;verticalAlign=middle;whiteSpace=wrap;rounded=0;fontSize=20;" vertex="1" parent="1">
          <mxGeometry x="310" y="190" width="60" height="30" as="geometry" />
        </mxCell>
        <mxCell id="Y0bdDdcckE70ORQPM595-49" value="Y=F" style="rounded=0;whiteSpace=wrap;html=1;fontSize=20;" vertex="1" parent="1">
          <mxGeometry x="480" y="250" width="120" height="60" as="geometry" />
        </mxCell>
        <mxCell id="Y0bdDdcckE70ORQPM595-50" value="X2=2" style="text;html=1;strokeColor=none;fillColor=none;align=center;verticalAlign=middle;whiteSpace=wrap;rounded=0;fontSize=20;" vertex="1" parent="1">
          <mxGeometry x="480" y="150" width="60" height="30" as="geometry" />
        </mxCell>
      </root>
    </mxGraphModel>
  </diagram>
</mxfile>
